<?xml version="1.0" ?><svg height="143.73256mm" viewBox="0 0 156.37097 143.73256" width="156.37097mm" xmlns="http://www.w3.org/2000/svg">
    <path color="#000" d="m -2363.1045,7714.4187 c -77.289,-0.3226 -94.013,100.6293 -94.013,100.6293 l -138.932,6.8793 c -26.28,45.0461 3.825,391.224 3.825,391.224 -11.672,24.9776 469.488,16.8619 495.752,6.2347 44.242,-17.9006 26.995,-404.4176 15.051,-405.6299 l -172.975,-8.1687 c 0,0 -31.419,-90.8462 -108.708,-91.1687 z m 6.237,46.5425 c 0.7,-0.015 1.408,0 2.126,0.015 45.871,0.9675 51.964,46.3372 51.964,46.3372 l -107.87,3.0089 c 0,0 9.722,-48.7542 53.78,-49.3549 z" fill="#1155b1" overflow="visible" paint-order="fill markers stroke" transform="translate(148.73756,-185.71539) matrix(0.26458333,0,0,0.26458333,548.43779,-1852.1059)"/>
    <path d="m -2619.5055,8191.5093 c -6.945,-15.4661 -20.9,-224.2862 -13.271,-334.4743 7.264,-57.7608 73.02,-51.4739 108.246,-51.2847 19.667,0.1421 50.977,-1.1812 56.019,-2.3686 2.438,-0.5739 3.747,-3.043 4.271,-8.0603 2.155,-20.6104 4.269,-33.1238 14.284,-45.801 42.335,-53.5903 147.514,-67.6001 184.578,-11.9857 8.417,12.8818 17.952,35.8177 19.977,48.0576 5.051,14.9513 30.438,7.7492 46.969,7.9368 53.023,0.8274 119.908,-9.8729 135.587,28.6613 28.861,72.8521 16.819,186.6487 13.772,257.0883 -2.689,58.5421 -10.618,114.3675 -18.455,129.9264 -23.771,34.9178 -54.431,33.238 -91.261,34.8774 -84.534,1.4027 -178.207,1.5638 -252.15,0.3192 -144.762,-6.9436 -181.2,8.0411 -208.566,-52.8924 z m 185.639,25.5887 c 90.25,0.026 188.435,4.8387 270.916,-0.022 56.67,2.4738 66.638,-8.54 73.92,-53.8932 6.055,-110.2984 11.678,-207.5653 -1.45,-318.377 -6.858,-37.3641 -83.199,-24.0358 -120.606,-24.186 -119.063,1.5943 -206.058,11.4206 -317.661,6.4711 -55.354,4.048 -74.578,19.751 -70.307,71.0282 1.052,57.2174 0.141,121.0523 2.676,170.6437 -1.196,129.8983 11.318,155.508 162.512,148.3354 z m 15.061,-161.2282 c -20.194,-5.1716 -45.654,-3.4304 -65.176,-11.2094 -19.299,-7.6897 -9.773,-33.504 -6.292,-83.2802 1.295,-18.5211 39.648,-12.2388 43.825,-10.9116 8.701,2.6526 17.029,2.6412 25.955,2.5918 l 2.36,-29.4485 c 2.942,-36.7131 2.549,-36.29 34.644,-37.2268 5.993,-0.1748 13.581,-0.5346 16.861,-0.7992 50.225,1.3008 64.259,-3.7371 62.937,26.7769 -1.151,17.8401 -0.793,27.4708 0.4,37.6948 6.297,15.1437 49.823,-7.2872 67.796,7.7166 7.193,7.1589 9.689,29.1581 7.652,67.4506 3.871,53.7721 -45.276,28.3958 -64.305,38.0264 -4.839,10.0473 -5.224,34.9011 -2.553,54.3654 1.661,13.788 -4.812,15.9316 -44.619,14.7766 -111.245,8.5392 -70.002,-4.1738 -79.485,-76.5234 z m 92.094,50.1135 c -5.703,-5.2885 1.32,-52.5215 8.894,-59.8121 19.062,-6.4342 38.032,-6.7328 57.148,-5.2886 l 0.938,-28.7163 c 1.122,-34.3815 0.67,-36.3947 -7.86,-34.956 -9.184,1.5493 -43.137,-1.6806 -44.492,-4.2323 -9.017,-2.8013 -24.897,-8.1328 -23.896,-19.8933 1.453,-15.4549 1.73,-42.541 0.46,-44.9344 -1.074,-2.0234 -6.569,-2.6695 -23.817,-2.7998 -34.039,-0.2572 -30.196,-3.4109 -31.553,25.8947 -0.03,13.0564 8.43,49.5451 -18.872,45.7157 -18.185,-4.7339 -32.818,-5.5978 -52.184,-7.7585 1.378,20.6732 -1.634,38.7581 -1.683,59.1405 16.973,1.0133 34.618,2.843 50.479,5.2974 22.347,3.5014 28.65,7.0344 25.632,14.3661 -1.666,4.0475 -5.071,59.7013 -3.798,62.0973 20.846,5.5747 68.797,1.9546 64.604,-4.1204 z m -71.515,-347.6043 c 15.088,-11.59 48.827,-16.9804 66.346,-10.6005 20.403,4.4536 36.023,19.0962 41.35,38.2194 2.74,11.0634 3.185,11.6403 8.798,11.3966 3.251,-0.1406 6.135,-0.452 6.407,-0.6914 1.066,-0.934 -7.667,-28.2534 -11.281,-35.2923 -23.461,-50.5963 -106.933,-34.1703 -132.745,0.4363 -6.179,10.1905 -14.377,34.1254 -13.099,38.2432 0.479,1.5445 3.22,2.6967 6.333,2.6619 14.005,-8.5075 9.723,-29.6419 27.891,-44.3732 z m 76.581,40.4313 c 0.745,-1.0454 -0.773,-6.7081 -3.372,-12.5835 -12.553,-23.6403 -62.596,-13.5312 -66.652,13.8849 20.499,-1.2935 57.091,3.0174 70.024,-1.3014 z" fill="#000000" transform="translate(148.73756,-185.71539) matrix(0.26458333,0,0,0.26458333,548.43779,-1852.1059)"/>
</svg>